<svg xmlns="http://www.w3.org/2000/svg" viewBox="0 0 500 500"><g id="freepik--Icons--inject-167"><rect x="208.83" y="41.81" width="39.51" height="39.52" rx="10.38" style="fill:#fff"></rect><path d="M238,81.33s.5,0,1.41-.17a9.64,9.64,0,0,0,3.79-1.36,10.24,10.24,0,0,0,4.16-4.71,10.55,10.55,0,0,0,.85-3.86c0-1.42,0-2.93,0-4.52,0-3.17,0-6.64,0-10.37,0-.93,0-1.88,0-2.85A17.44,17.44,0,0,0,248,50.6a9.4,9.4,0,0,0-.88-2.8,9.57,9.57,0,0,0-1.71-2.5,10.23,10.23,0,0,0-5.39-3,17.42,17.42,0,0,0-3.26-.2H219.22a10.14,10.14,0,0,0-9.91,8,16.08,16.08,0,0,0-.23,3.33v3.32c0,2.2,0,4.35,0,6.45s0,4.14,0,6.13a25.15,25.15,0,0,0,.08,2.9,10.9,10.9,0,0,0,.7,2.68A10.23,10.23,0,0,0,217.47,81a31.14,31.14,0,0,0,4.48.18l4,0,6.46,0,4.09,0,1.06,0a1.65,1.65,0,0,1,.36,0l-.36,0-1.06,0-4.09.05-6.46,0-4,0a29.46,29.46,0,0,1-4.54-.15,10.6,10.6,0,0,1-8-6.28,10.81,10.81,0,0,1-.75-2.8,26.44,26.44,0,0,1-.1-3c0-2,0-4,0-6.13s0-4.25,0-6.45V53.41a16,16,0,0,1,.23-3.43,10.64,10.64,0,0,1,10.41-8.43h17.52a15.78,15.78,0,0,1,3.36.22,10.64,10.64,0,0,1,5.64,3.2,10,10,0,0,1,1.78,2.61,9.82,9.82,0,0,1,.91,2.94,17.56,17.56,0,0,1,.14,3c0,1,0,1.92,0,2.85,0,3.73,0,7.2,0,10.37,0,1.59,0,3.1,0,4.53a10.52,10.52,0,0,1-.92,4A10.4,10.4,0,0,1,243.26,80a9.78,9.78,0,0,1-3.87,1.29A8.55,8.55,0,0,1,238,81.33Z" style="fill:#263238"></path><path d="M230.3,61.36a4.84,4.84,0,0,0,2.9-4.49,4.56,4.56,0,1,0-9.11,0,4.84,4.84,0,0,0,2.9,4.53c-7,1.06-6.68,8.67-6.68,8.67l16.56.08S237.25,62.41,230.3,61.36Z" style="fill:#455a64"></path><path d="M236.89,70.13h0l-16.59-.07v0a11,11,0,0,1,.72-4,7.68,7.68,0,0,1,2-2.94,7.49,7.49,0,0,1,3.92-1.79,4.84,4.84,0,0,1-2.83-4.52,5,5,0,0,1,1.35-3.44A4.44,4.44,0,0,1,228.64,52h0a4.75,4.75,0,0,1,4.56,4.9,4.86,4.86,0,0,1-2.83,4.48,7.4,7.4,0,0,1,3.89,1.8,7.73,7.73,0,0,1,1.93,3,10.86,10.86,0,0,1,.68,4ZM220.33,70l16.52.07a11.51,11.51,0,0,0-.68-3.94,7.66,7.66,0,0,0-1.93-3,7.27,7.27,0,0,0-3.94-1.8l-.09,0,.08,0a4.81,4.81,0,0,0,2.88-4.47A4.69,4.69,0,0,0,228.66,52h0a4.35,4.35,0,0,0-3.18,1.4,4.94,4.94,0,0,0-1.34,3.41A4.78,4.78,0,0,0,227,61.34l.09,0-.09,0a7.46,7.46,0,0,0-4,1.79,7.6,7.6,0,0,0-2,2.92A11.07,11.07,0,0,0,220.33,70Z" style="fill:#263238"></path><rect x="207.38" y="210.14" width="44.98" height="44.99" rx="10.38" style="fill:#fff"></rect><path d="M242,255.13s.57,0,1.63-.2a10.3,10.3,0,0,0,8.31-7.78,19,19,0,0,0,.27-4.61c0-1.65,0-3.4,0-5.23,0-3.67,0-7.68,0-12V222a17.73,17.73,0,0,0-.18-3.34,10.17,10.17,0,0,0-10.1-8.3h-24.1a10.14,10.14,0,0,0-10.13,10.15c0,5.28,0,10.37,0,15.22,0,2.42,0,4.79,0,7.08a24.69,24.69,0,0,0,.12,3.36,9.4,9.4,0,0,0,.94,3.06,10.26,10.26,0,0,0,4.15,4.37,10.52,10.52,0,0,0,5.43,1.3l17.37.09,4.72.05,1.23,0,.42,0a2,2,0,0,1-.42,0l-1.23,0-4.72,0-17.37.08a10.85,10.85,0,0,1-5.63-1.32,10.6,10.6,0,0,1-4.33-4.53,9.92,9.92,0,0,1-1-3.19,24.39,24.39,0,0,1-.12-3.42c0-2.29,0-4.66,0-7.08,0-4.85,0-9.94,0-15.22a10.65,10.65,0,0,1,10.64-10.67h24.1a10.77,10.77,0,0,1,7,2.56,10.64,10.64,0,0,1,3.54,6.16,18.07,18.07,0,0,1,.17,3.42v3.29c0,4.31,0,8.32,0,12,0,1.83,0,3.58,0,5.23a19.21,19.21,0,0,1-.33,4.68,10.49,10.49,0,0,1-4.19,6.09,10.33,10.33,0,0,1-4.39,1.73,6.93,6.93,0,0,1-1.23.09Z" style="fill:#263238"></path><path d="M231.83,232.4a5.51,5.51,0,0,0,3.29-5.11,5.19,5.19,0,1,0-10.36,0,5.5,5.5,0,0,0,3.3,5.16c-8,1.2-7.61,9.87-7.61,9.87l18.85.09S239.73,233.6,231.83,232.4Z" style="fill:#5E7AFF"></path></g><g id="freepik--Window--inject-167"><path d="M384.08,265.21c.14,0,.26,5,.26,11.26s-.12,11.26-.26,11.26-.26-5-.26-11.26S383.93,265.21,384.08,265.21Z" style="fill:#263238"></path><rect x="355.24" y="312.02" width="25.36" height="25.36" style="fill:#e0e0e0"></rect><rect x="386.99" y="313.56" width="26.12" height="2.17" style="fill:#e0e0e0"></rect><rect x="386.99" y="318.57" width="26.12" height="2.17" style="fill:#e0e0e0"></rect><rect x="386.99" y="323.59" width="26.12" height="2.17" style="fill:#e0e0e0"></rect><rect x="386.99" y="328.61" width="26.12" height="2.17" style="fill:#e0e0e0"></rect><rect x="386.99" y="333.62" width="26.12" height="2.17" style="fill:#e0e0e0"></rect><path d="M355.52,288.18h55.26a7.05,7.05,0,0,1,7.05,7.05v9.91a0,0,0,0,1,0,0H348.57a0,0,0,0,1,0,0v-10A7,7,0,0,1,355.52,288.18Z" style="fill:#e0e0e0"></path><path d="M411.37,349.13a7.56,7.56,0,0,0,2.45-.54,6.49,6.49,0,0,0,2.42-1.8,6.32,6.32,0,0,0,1.47-3.78c0-6.32,0-15.44-.06-26.7,0-5.64,0-11.81,0-18.44,0-.83,0-1.67,0-2.51a7.51,7.51,0,0,0-.27-2.46,6.31,6.31,0,0,0-5.6-4.46c-.86-.05-1.79,0-2.69,0h-5.52l-48.5,0a6.36,6.36,0,0,0-3,.73,6.21,6.21,0,0,0-2.23,2.06,6,6,0,0,0-1,2.85c-.05,1,0,2.1,0,3.13v12.38c0,8.11,0,15.94,0,23.4v8.22a13.24,13.24,0,0,0,.12,2.62,6.41,6.41,0,0,0,2.77,4.05,6.3,6.3,0,0,0,2.27.91,12.49,12.49,0,0,0,2.46.12l18.44,0,26.71.09,7.26.05,1.89,0,.64,0s-.22,0-.64,0l-1.89,0-7.26.05-26.71.08-18.44,0a13.65,13.65,0,0,1-2.54-.11,6.87,6.87,0,0,1-5.41-5.31,13.81,13.81,0,0,1-.14-2.71v-2.7c0-1.82,0-3.66,0-5.52,0-7.46,0-15.29,0-23.4V297.21c0-1,0-2.08,0-3.17a6.63,6.63,0,0,1,1.05-3.1,6.82,6.82,0,0,1,2.42-2.23,6.91,6.91,0,0,1,3.22-.79l48.5,0h5.52c.92,0,1.79,0,2.72,0a6.53,6.53,0,0,1,2.64.75,6.74,6.74,0,0,1,3.35,4,7.94,7.94,0,0,1,.29,2.59v2.51c0,6.63,0,12.8,0,18.44,0,11.28,0,20.4-.1,26.71a6.54,6.54,0,0,1-1.56,3.87,6.62,6.62,0,0,1-2.5,1.8,6.44,6.44,0,0,1-1.84.43Z" style="fill:#263238"></path><path d="M387,288.18a2.92,2.92,0,1,1-2.91-2.91A2.91,2.91,0,0,1,387,288.18Z" style="fill:#263238"></path></g><g id="freepik--Chart--inject-167"><path d="M270.36,189.55a5.4,5.4,0,0,1-.69,0l-2,.05-7.3.08-24.09.08h-3.48a12.82,12.82,0,0,1-1.74-.06,6,6,0,0,1-1.67-.49,7.81,7.81,0,0,1-4.14-4.89,10.14,10.14,0,0,1-.43-3c0-1,0-1.9,0-2.81,0-1.8,0-3.49.07-5,0-3,.1-5.51.13-7.3q0-1.23.06-2a3,3,0,0,1,.06-.69,3.62,3.62,0,0,1,0,.69q0,.75,0,2c0,1.79,0,4.27,0,7.3,0,1.55,0,3.24,0,5.05s-.21,3.78.43,5.67a7.4,7.4,0,0,0,3.88,4.57,5.9,5.9,0,0,0,1.54.44,13,13,0,0,0,1.67.06h3.48l24.09.07,7.3.08,2,.05A3.15,3.15,0,0,1,270.36,189.55Z" style="fill:#263238"></path><rect x="183.97" y="97.79" width="60.95" height="60.95" rx="10.38" style="fill:#fff"></rect><path d="M234.53,158.73a19.46,19.46,0,0,0,2.26-.31,10.36,10.36,0,0,0,5.49-3.33,10,10,0,0,0,2.16-4.13,21.88,21.88,0,0,0,.32-5.6c0-4.06,0-8.69,0-13.79s0-10.71,0-16.72v-4.59a18,18,0,0,0-.34-4.64,10.15,10.15,0,0,0-6.2-6.91,9.36,9.36,0,0,0-2.41-.6,23.72,23.72,0,0,0-2.55-.08H194.35A10.14,10.14,0,0,0,189,99.6a9.48,9.48,0,0,0-2.14,1.8,9.37,9.37,0,0,0-1.56,2.29,10.11,10.11,0,0,0-.88,2.62,14.73,14.73,0,0,0-.18,2.75v5.57c0,7.35,0,14.45,0,21.21,0,3.38,0,6.67,0,9.87a26.65,26.65,0,0,0,.2,4.68,10.36,10.36,0,0,0,1.83,4.05,10.11,10.11,0,0,0,7.22,4c2.75.1,5.45,0,8,.07l24.21.08,6.58.05,1.71,0,.59,0-.59,0-1.71,0-6.58.05-24.21.09c-2.56,0-5.22.05-8,0a10.48,10.48,0,0,1-7.52-4.18,10.6,10.6,0,0,1-1.92-4.23,25.23,25.23,0,0,1-.22-4.76q0-4.8,0-9.87c0-6.76,0-13.86,0-21.21v-5.57a14.51,14.51,0,0,1,.18-2.85,10.86,10.86,0,0,1,.92-2.75,10.37,10.37,0,0,1,1.64-2.41,10.18,10.18,0,0,1,2.25-1.89,10.71,10.71,0,0,1,5.65-1.63h38.84a22.92,22.92,0,0,1,2.61.09,10.34,10.34,0,0,1,2.52.63,10.59,10.59,0,0,1,6.47,7.25,17.88,17.88,0,0,1,.34,4.75v4.59c0,6,0,11.6,0,16.72s0,9.73,0,13.79a22.45,22.45,0,0,1-.38,5.66,10.07,10.07,0,0,1-2.25,4.2,10.26,10.26,0,0,1-5.62,3.3,9,9,0,0,1-1.7.21C234.72,158.74,234.53,158.73,234.53,158.73Z" style="fill:#263238"></path><rect x="193.68" y="140.4" width="7.69" height="5.89" style="fill:#5E7AFF"></rect><rect x="203.41" y="126.82" width="7.69" height="19.47" style="fill:#5E7AFF"></rect><rect x="214.11" y="135.2" width="7.69" height="11.08" style="fill:#5E7AFF"></rect><rect x="224.32" y="121.17" width="7.69" height="25.11" style="fill:#5E7AFF"></rect><path d="M197,134.33a3.83,3.83,0,1,1,3.83-3.83A3.83,3.83,0,0,1,197,134.33Zm0-6.65a2.83,2.83,0,1,0,2.83,2.82A2.83,2.83,0,0,0,197,127.68Z" style="fill:#5E7AFF"></path><path d="M208,119.77a3.83,3.83,0,1,1,3.83-3.83A3.84,3.84,0,0,1,208,119.77Zm0-6.66a2.83,2.83,0,1,0,2.83,2.83A2.83,2.83,0,0,0,208,113.11Z" style="fill:#5E7AFF"></path><path d="M218,129a3.83,3.83,0,1,1,3.83-3.83A3.84,3.84,0,0,1,218,129Zm0-6.65a2.83,2.83,0,1,0,2.83,2.82A2.83,2.83,0,0,0,218,122.34Z" style="fill:#5E7AFF"></path><path d="M228.59,115.62a3.83,3.83,0,1,1,3.83-3.83A3.84,3.84,0,0,1,228.59,115.62Zm0-6.66a2.83,2.83,0,1,0,2.83,2.83A2.83,2.83,0,0,0,228.59,109Z" style="fill:#5E7AFF"></path><rect x="217.87" y="118.12" width="10.74" height="1" transform="translate(-2.17 233.05) rotate(-54.9)" style="fill:#5E7AFF"></rect><rect x="212.42" y="117.67" width="1" height="6.8" transform="translate(-24.64 180.74) rotate(-43.72)" style="fill:#5E7AFF"></rect><rect x="196.66" y="122.77" width="11.3" height="1" transform="translate(-19.12 207.49) rotate(-52.18)" style="fill:#5E7AFF"></rect><path d="M229.24,159.45a2.92,2.92,0,1,1-2.91-2.91A2.91,2.91,0,0,1,229.24,159.45Z" style="fill:#263238"></path></g><g id="freepik--Search--inject-167"><path d="M299.36,145.07c-.14,0-.26-8.4-.26-18.76s.12-18.76.26-18.76.26,8.4.26,18.76S299.5,145.07,299.36,145.07Z" style="fill:#263238"></path><rect x="267.16" y="46.4" width="60.95" height="60.95" rx="10.38" style="fill:#fff"></rect><path d="M317.72,107.34A19.46,19.46,0,0,0,320,107a10.36,10.36,0,0,0,5.49-3.33,10,10,0,0,0,2.16-4.13A21.88,21.88,0,0,0,328,94c0-4.06,0-8.69,0-13.79s0-10.71,0-16.72V58.87a18,18,0,0,0-.34-4.64,10.18,10.18,0,0,0-6.2-6.92,9.77,9.77,0,0,0-2.41-.59,21.39,21.39,0,0,0-2.55-.08H277.54a10.14,10.14,0,0,0-5.37,1.55A9.48,9.48,0,0,0,270,50a9.37,9.37,0,0,0-1.56,2.29,10.11,10.11,0,0,0-.88,2.62,14.73,14.73,0,0,0-.18,2.75v5.57c0,7.35,0,14.45,0,21.21,0,3.37,0,6.67,0,9.87a26.54,26.54,0,0,0,.2,4.67,10.34,10.34,0,0,0,1.83,4.06,10.15,10.15,0,0,0,7.22,4c2.75.1,5.45,0,8,.07l24.21.08,6.58.05,1.71,0,.59,0-.59,0-1.71,0-6.58,0-24.21.08c-2.56,0-5.22.06-8,0a10.62,10.62,0,0,1-9.44-8.41,25.23,25.23,0,0,1-.22-4.76c0-3.2,0-6.5,0-9.87,0-6.76,0-13.86,0-21.21V57.67a14.51,14.51,0,0,1,.18-2.85,10.86,10.86,0,0,1,.92-2.75,10.37,10.37,0,0,1,1.64-2.41,10.18,10.18,0,0,1,2.25-1.89,10.71,10.71,0,0,1,5.65-1.63h38.84a22.92,22.92,0,0,1,2.61.09,10.34,10.34,0,0,1,2.52.63A10.59,10.59,0,0,1,328,54.12a17.88,17.88,0,0,1,.34,4.75v4.59c0,6,0,11.6,0,16.72s0,9.73,0,13.79a22.45,22.45,0,0,1-.38,5.66,10.07,10.07,0,0,1-2.25,4.2,10.26,10.26,0,0,1-5.62,3.3,9,9,0,0,1-1.7.21Z" style="fill:#263238"></path><path d="M302.22,107.34a2.91,2.91,0,1,1-2.91-2.91A2.91,2.91,0,0,1,302.22,107.34Z" style="fill:#263238"></path><path d="M295.33,84.65A11.11,11.11,0,1,1,298.75,63a11.1,11.1,0,0,1,7.16,14h0A11.13,11.13,0,0,1,295.33,84.65Zm0-20.23A9.11,9.11,0,1,0,304,76.33h0a9.12,9.12,0,0,0-5.88-11.47A9,9,0,0,0,295.34,64.42Z" style="fill:#263238"></path><path d="M310,91.32a1,1,0,0,1-.73-.33L301,82a1,1,0,0,1,1.47-1.35l8.26,9a1,1,0,0,1-.06,1.41A1,1,0,0,1,310,91.32Z" style="fill:#263238"></path></g><g id="freepik--Cloud--inject-167"><rect x="342.4" y="67.31" width="60.95" height="60.95" rx="10.38" style="fill:#fff"></rect><path d="M393,128.26a19.43,19.43,0,0,0,2.27-.31,10.36,10.36,0,0,0,5.49-3.33,10.08,10.08,0,0,0,2.16-4.14,22.26,22.26,0,0,0,.32-5.59c0-4.07,0-8.69,0-13.8s0-10.71,0-16.71V79.79a17.57,17.57,0,0,0-.35-4.64,10.12,10.12,0,0,0-6.19-6.92,10,10,0,0,0-2.41-.59,19.53,19.53,0,0,0-2.55-.08H352.79a10.22,10.22,0,0,0-5.37,1.56,9.43,9.43,0,0,0-2.14,1.79,9.34,9.34,0,0,0-1.56,2.3,9.8,9.8,0,0,0-.88,2.61,14.89,14.89,0,0,0-.18,2.76v5.57c0,7.35,0,14.44,0,21.2,0,3.38,0,6.68,0,9.88a25.61,25.61,0,0,0,.2,4.67,10.34,10.34,0,0,0,1.83,4.06,10.15,10.15,0,0,0,7.21,4c2.76.1,5.46,0,8,.07l24.21.08,6.58.05,1.71,0c.39,0,.58,0,.58,0s-.19,0-.58,0l-1.71,0-6.58.05-24.21.08c-2.56,0-5.22.06-8,0a10.5,10.5,0,0,1-7.52-4.18,10.68,10.68,0,0,1-1.93-4.23,27,27,0,0,1-.22-4.76c0-3.2,0-6.5,0-9.88,0-6.76,0-13.85,0-21.2V78.59a14.51,14.51,0,0,1,.18-2.85,10.86,10.86,0,0,1,.92-2.75,10.37,10.37,0,0,1,1.64-2.41,10.18,10.18,0,0,1,2.25-1.89,10.72,10.72,0,0,1,5.65-1.64h38.84a25.45,25.45,0,0,1,2.61.08,10.82,10.82,0,0,1,2.52.63A10.65,10.65,0,0,1,403.23,75a18,18,0,0,1,.34,4.76c0,1.55,0,3.08,0,4.59,0,6,0,11.6,0,16.71s0,9.73,0,13.8a22,22,0,0,1-.37,5.66,10.43,10.43,0,0,1-7.87,7.5,10.06,10.06,0,0,1-1.7.21C393.16,128.27,393,128.26,393,128.26Z" style="fill:#263238"></path><path d="M376.55,128.69a2.92,2.92,0,1,1-2.92-2.91A2.92,2.92,0,0,1,376.55,128.69Z" style="fill:#263238"></path><path d="M395.92,100.19c1.53,5.36-2,10.6-7.45,10.6H359.59a7.21,7.21,0,0,1-7-9.07,5.27,5.27,0,0,1,.25-.7,7.62,7.62,0,0,1,8.28-4.5,13.12,13.12,0,0,1,25.39-2.8S394,93.32,395.92,100.19Z" style="fill:#5E7AFF"></path><path d="M371.49,115.91V104.83h-4.34a.63.63,0,0,1-.51-1l7.15-10.09a.62.62,0,0,1,1,0l7.14,10a.63.63,0,0,1-.51,1h-4.23v11.16Z" style="fill:#fff"></path></g><g id="freepik--Globe--inject-167"><rect x="408.69" y="140.91" width="60.95" height="60.95" rx="10.38" style="fill:#fff"></rect><path d="M459.25,201.85a17,17,0,0,0,2.26-.31,10.36,10.36,0,0,0,5.49-3.33,10,10,0,0,0,2.16-4.13,21.88,21.88,0,0,0,.32-5.6c0-4.06,0-8.68,0-13.79s0-10.71,0-16.72v-4.58a18.07,18.07,0,0,0-.34-4.65,10.15,10.15,0,0,0-6.2-6.91,9.36,9.36,0,0,0-2.41-.6,23.72,23.72,0,0,0-2.55-.08H419.07a10.14,10.14,0,0,0-5.37,1.55,9.74,9.74,0,0,0-2.14,1.8,9.37,9.37,0,0,0-1.56,2.29,10.24,10.24,0,0,0-.88,2.62,14.84,14.84,0,0,0-.18,2.76v5.56c0,7.35,0,14.45,0,21.21,0,3.38,0,6.67,0,9.87a26.65,26.65,0,0,0,.2,4.68,10.3,10.3,0,0,0,1.83,4.05,10.16,10.16,0,0,0,7.22,4.05c2.75.09,5.45,0,8,.06l24.21.08,6.58.05,1.71,0c.39,0,.59,0,.59,0l-.59,0-1.71,0-6.58,0-24.21.09c-2.56,0-5.22.06-8,0a10.64,10.64,0,0,1-9.44-8.42,25.23,25.23,0,0,1-.22-4.76q0-4.8,0-9.87c0-6.76,0-13.86,0-21.21v-5.56a14.57,14.57,0,0,1,.18-2.86,10.86,10.86,0,0,1,.92-2.75,10.37,10.37,0,0,1,1.64-2.41,10.18,10.18,0,0,1,2.25-1.89,10.71,10.71,0,0,1,5.65-1.63h38.84a22.92,22.92,0,0,1,2.61.09,10.34,10.34,0,0,1,2.52.63,10.59,10.59,0,0,1,6.47,7.25,17.92,17.92,0,0,1,.34,4.76V158c0,6,0,11.6,0,16.72s0,9.73,0,13.79a22.42,22.42,0,0,1-.38,5.66,10.07,10.07,0,0,1-2.25,4.2,10.35,10.35,0,0,1-5.62,3.31,9.72,9.72,0,0,1-1.7.2C459.44,201.86,459.25,201.85,459.25,201.85Z" style="fill:#263238"></path><path d="M439.94,189.89a18.54,18.54,0,1,1,18.53-18.53A18.56,18.56,0,0,1,439.94,189.89Zm0-36.07a17.54,17.54,0,1,0,17.53,17.54A17.56,17.56,0,0,0,439.94,153.82Z" style="fill:#5E7AFF"></path><path d="M439.38,189.83a17.46,17.46,0,0,1-4.75-4.38A21.87,21.87,0,0,1,430.29,171a22.72,22.72,0,0,1,5.08-14.1,16.52,16.52,0,0,1,4.76-4l.44.9c-.09,0-8.81,4.51-9.28,17.25s8.49,17.88,8.58,17.93Z" style="fill:#5E7AFF"></path><path d="M440.2,189.82l-.52-.85c.08-.06,8.76-5.59,8.29-18.34s-8.82-16.82-8.9-16.86l.42-.9c.37.17,9,4.36,9.48,17.73S440.29,189.76,440.2,189.82Z" style="fill:#5E7AFF"></path><path d="M440.18,165.48c-7.5,0-12.34-2.55-15.08-4.69l.62-.79c2.61,2.05,7.24,4.48,14.46,4.48,7,0,11.42-2.42,13.91-4.45l.63.77C452.11,162.94,447.47,165.48,440.18,165.48Z" style="fill:#5E7AFF"></path><path d="M454.13,182.16c-2.61-2-7.24-4.34-14.47-4.34-7,0-11.42,2.34-13.91,4.32l-.62-.79c2.61-2.07,7.25-4.53,14.53-4.53,7.51,0,12.34,2.47,15.08,4.54Z" style="fill:#5E7AFF"></path><rect x="422.35" y="170.91" width="35.64" height="1" style="fill:#5E7AFF"></rect><path d="M411.38,172.62a2.92,2.92,0,1,1-2.91-2.92A2.91,2.91,0,0,1,411.38,172.62Z" style="fill:#263238"></path><path d="M410.1,172.62c0,.14-6.92.26-15.45.26s-15.45-.12-15.45-.26,6.92-.26,15.45-.26S410.1,172.47,410.1,172.62Z" style="fill:#263238"></path></g><g id="freepik--social-media-icon--inject-167"><rect x="412.72" y="220.23" width="44.98" height="44.98" rx="10.38" style="fill:#fff"></rect><path d="M447.32,265.21s.58,0,1.63-.19a10.5,10.5,0,0,0,4.29-1.79,10.37,10.37,0,0,0,4-6,19.05,19.05,0,0,0,.27-4.61c0-1.65,0-3.4,0-5.23,0-3.67,0-7.69,0-12v-3.29a16.94,16.94,0,0,0-.19-3.34,10.07,10.07,0,0,0-3.4-5.87,10.23,10.23,0,0,0-6.69-2.42h-24.1A10.14,10.14,0,0,0,413,230.64c0,5.27,0,10.36,0,15.21q0,3.65,0,7.09a24.57,24.57,0,0,0,.11,3.35,9.66,9.66,0,0,0,.95,3.06,10.19,10.19,0,0,0,4.14,4.37,10.59,10.59,0,0,0,5.44,1.31l17.37.08,4.72.05,1.23,0,.41,0a2.18,2.18,0,0,1-.41,0l-1.23,0-4.72,0-17.37.09a11,11,0,0,1-5.63-1.33,10.65,10.65,0,0,1-4.34-4.52,10.24,10.24,0,0,1-1-3.19,26.08,26.08,0,0,1-.13-3.42q0-3.45,0-7.09c0-4.85,0-9.94,0-15.21A10.65,10.65,0,0,1,423.11,220h24.1a10.79,10.79,0,0,1,7,2.55,10.56,10.56,0,0,1,3.54,6.16,17.3,17.3,0,0,1,.18,3.42c0,1.12,0,2.21,0,3.29,0,4.31,0,8.33,0,12,0,1.83,0,3.58,0,5.23a18.65,18.65,0,0,1-.32,4.67,10.52,10.52,0,0,1-4.19,6.1,10.2,10.2,0,0,1-4.39,1.72,8.34,8.34,0,0,1-1.23.1A2.76,2.76,0,0,1,447.32,265.21Z" style="fill:#263238"></path><path d="M424.19,250.52a14.48,14.48,0,0,0,22.28-12.86A10.63,10.63,0,0,0,449,235a10,10,0,0,1-2.93.8,5.09,5.09,0,0,0,2.24-2.81,10.25,10.25,0,0,1-3.23,1.23,5.1,5.1,0,0,0-8.68,4.65,14.44,14.44,0,0,1-10.49-5.32,5.09,5.09,0,0,0,1.57,6.8,5.18,5.18,0,0,1-2.31-.64,5.12,5.12,0,0,0,4.09,5.06,5.07,5.07,0,0,1-2.3.08,5.09,5.09,0,0,0,4.76,3.54A10.23,10.23,0,0,1,424.19,250.52Z" style="fill:#455a64"></path></g><g id="freepik--Device--inject-167"><path d="M397.26,262.76l-13.05-45.94H270.11l-14.87,45.79a4.29,4.29,0,0,0,4,5.63h52.12l2.11-2.11h24.61l2.11,2.11h53A4.28,4.28,0,0,0,397.26,262.76Z" style="fill:#e0e0e0"></path><g style="opacity:0.30000000000000004"><path d="M397.26,262.76l-13.05-45.94H270.11l-14.87,45.79a4.29,4.29,0,0,0,4,5.63h52.12l2.11-2.11h24.61l2.11,2.11h53A4.28,4.28,0,0,0,397.26,262.76Z"></path></g><path d="M270.06,215.63V148.22a4.82,4.82,0,0,1,4.81-4.84H379.72a4.82,4.82,0,0,1,4.81,4.84v67.41Z" style="fill:#e0e0e0"></path><rect x="276.98" y="150.05" width="100.63" height="59.95" style="fill:#fff"></rect><path d="M377.61,210s0-.38,0-1.09,0-1.78,0-3.15c0-2.77,0-6.82-.06-12,0-10.39-.06-25.35-.1-43.69l.2.2L277,150.31h0l.26-.26c0,21.23,0,41.5,0,59.95l-.24-.24,72.38.11,20.78.07,5.54,0h1.43l.5,0h-.47l-1.4,0-5.5,0-20.72.06-72.54.12h-.24V210c0-18.45,0-38.72,0-59.95v-.26H277l100.62.06h.2v.2c0,18.4-.08,33.4-.11,43.82,0,5.18,0,9.21-.05,12,0,1.35,0,2.39,0,3.11S377.61,210,377.61,210Z" style="fill:#263238"></path><path d="M329.15,146.89a1.86,1.86,0,1,1-1.85-1.82A1.83,1.83,0,0,1,329.15,146.89Z" style="fill:#263238"></path><path d="M397.26,261.06l-13.05-45.94H270.11l-14.87,45.79a4.29,4.29,0,0,0,4,5.63h52.12l2.11-2.11h24.61l2.11,2.11h53A4.28,4.28,0,0,0,397.26,261.06Z" style="fill:#e0e0e0"></path><path d="M376.11,218.06l-99.43-.33a2.31,2.31,0,0,0-2.25,1.38l-8,22.62c-.43,1.23.68,2.45,2.24,2.45H383.76c1.55,0,2.67-1.21,2.24-2.44l-7.65-22.28A2.34,2.34,0,0,0,376.11,218.06Z" style="fill:#ebebeb"></path><g style="opacity:0.1"><path d="M345.23,261.45H306a2.64,2.64,0,0,1-2.38-3.36l2.22-9.29a2.5,2.5,0,0,1,2.38-2h35.06a2.52,2.52,0,0,1,2.4,2.08l2,9.28A2.64,2.64,0,0,1,345.23,261.45Z"></path></g><path d="M345.1,225.22l-1-4.74a.7.7,0,0,0-.69-.55h-6.12a.7.7,0,0,0-.7.8l.68,4.74a.71.71,0,0,0,.7.61h6.47A.71.71,0,0,0,345.1,225.22Z" style="fill:#263238"></path><path d="M326.65,225.33l-.44-4.76a.69.69,0,0,0-.7-.64h-6.25a.71.71,0,0,0-.71.73l.17,4.76a.71.71,0,0,0,.71.68H326A.71.71,0,0,0,326.65,225.33Z" style="fill:#263238"></path><path d="M336.36,225.28l-.68-4.75a.7.7,0,0,0-.7-.6h-7.2a.7.7,0,0,0-.7.77l.43,4.75a.72.72,0,0,0,.71.64h7.44A.7.7,0,0,0,336.36,225.28Z" style="fill:#263238"></path><path d="M290.7,225.4l1-4.32a1,1,0,0,0-.93-1.15h-5.93a1,1,0,0,0-.91.69l-1.24,4.32a1,1,0,0,0,.92,1.21h6.2A1,1,0,0,0,290.7,225.4Z" style="fill:#263238"></path><path d="M377.08,225.07l-1.8-4.69a.7.7,0,0,0-.66-.45H363a.7.7,0,0,0-.66.95l1.75,4.7a.69.69,0,0,0,.66.46h11.69A.71.71,0,0,0,377.08,225.07Z" style="fill:#263238"></path><path d="M317,219.93h-6.76a.71.71,0,0,0-.71.67l-.23,4.78a.71.71,0,0,0,.71.74h7.17a.7.7,0,0,0,.7-.73l-.17-4.77A.71.71,0,0,0,317,219.93Z" style="fill:#263238"></path><path d="M282,219.93h-4.71a1,1,0,0,0-.9.63l-1.55,4.34a1,1,0,0,0,.89,1.27h5a1,1,0,0,0,.91-.69l1.24-4.33A1,1,0,0,0,282,219.93Z" style="fill:#263238"></path><path d="M299.45,225.52l.63-4.8a.7.7,0,0,0-.7-.79h-6a.71.71,0,0,0-.69.55l-1.07,4.8a.7.7,0,0,0,.69.86h6.47A.69.69,0,0,0,299.45,225.52Z" style="fill:#263238"></path><path d="M301,220.54l-.63,4.79a.71.71,0,0,0,.71.8h6.69a.71.71,0,0,0,.71-.67l.23-4.78a.7.7,0,0,0-.71-.74h-6.3A.71.71,0,0,0,301,220.54Z" style="fill:#263238"></path><path d="M354.3,225.15l-1.4-4.72a.7.7,0,0,0-.68-.5H345.7a.7.7,0,0,0-.69.85l1,4.73a.71.71,0,0,0,.69.56h6.9A.71.71,0,0,0,354.3,225.15Z" style="fill:#263238"></path><path d="M363,225.09l-1.75-4.7a.71.71,0,0,0-.66-.46h-6a.7.7,0,0,0-.67.9l1.39,4.72a.71.71,0,0,0,.68.5h6.35A.72.72,0,0,0,363,225.09Z" style="fill:#263238"></path><path d="M317.26,227.18h-7.38a.71.71,0,0,0-.71.67l-.24,4.94a.71.71,0,0,0,.71.74h7.8a.72.72,0,0,0,.71-.74l-.18-4.92A.71.71,0,0,0,317.26,227.18Z" style="fill:#263238"></path><path d="M365.75,232.5l-1.81-4.85a.7.7,0,0,0-.66-.46h-6.54a.71.71,0,0,0-.68.91L357.5,233a.71.71,0,0,0,.68.5h6.91A.71.71,0,0,0,365.75,232.5Z" style="fill:#263238"></path><path d="M356.5,232.56l-1.45-4.87a.69.69,0,0,0-.67-.5h-7.11a.7.7,0,0,0-.69.85l1.05,4.88a.72.72,0,0,0,.69.56h7.5A.71.71,0,0,0,356.5,232.56Z" style="fill:#263238"></path><path d="M300.07,233.54h7.31a.71.71,0,0,0,.7-.67l.24-4.94a.71.71,0,0,0-.71-.74h-6.9a.71.71,0,0,0-.7.62l-.64,4.94A.7.7,0,0,0,300.07,233.54Z" style="fill:#263238"></path><path d="M319.7,233.51h6.93a.7.7,0,0,0,.7-.77l-.45-4.9a.71.71,0,0,0-.7-.65h-6.66a.71.71,0,0,0-.7.74l.18,4.91A.7.7,0,0,0,319.7,233.51Z" style="fill:#263238"></path><path d="M327.74,228l.45,4.9a.72.72,0,0,0,.71.64h7.81a.7.7,0,0,0,.7-.8l-.7-4.9a.69.69,0,0,0-.69-.6h-7.57A.71.71,0,0,0,327.74,228Z" style="fill:#263238"></path><path d="M346.7,232.62l-1.06-4.88a.7.7,0,0,0-.69-.55H338.3a.7.7,0,0,0-.7.8l.7,4.89a.71.71,0,0,0,.7.61h7A.71.71,0,0,0,346.7,232.62Z" style="fill:#263238"></path><path d="M289.42,227.18H274.68a.72.72,0,0,0-.66.45l-1.92,5a.7.7,0,0,0,.66.95l15.55,0A.71.71,0,0,0,289,233l1.11-5A.71.71,0,0,0,289.42,227.18Z" style="fill:#263238"></path><path d="M290.63,233.55h7.16a.71.71,0,0,0,.7-.61l.64-5a.7.7,0,0,0-.7-.8h-6.69a.71.71,0,0,0-.69.55l-1.11,5A.71.71,0,0,0,290.63,233.55Z" style="fill:#263238"></path><path d="M374.55,233.44h4.6a.71.71,0,0,0,.66-1l-1.94-4.83a.72.72,0,0,0-.66-.45H373a.72.72,0,0,0-.68.93l1.57,4.83A.72.72,0,0,0,374.55,233.44Z" style="fill:#263238"></path><path d="M372.84,232.52l-1.57-4.84a.71.71,0,0,0-.67-.49h-4.91a.71.71,0,0,0-.66.95l1.8,4.85a.71.71,0,0,0,.67.46h4.67A.7.7,0,0,0,372.84,232.52Z" style="fill:#263238"></path><path d="M299.39,241.85h7.24a1.05,1.05,0,0,0,1.06-1l.25-5.15a1.05,1.05,0,0,0-1.06-1.11h-6.82a1.06,1.06,0,0,0-1.06.92l-.67,5.14A1.06,1.06,0,0,0,299.39,241.85Z" style="fill:#263238"></path><path d="M380.08,234.59H369a1.06,1.06,0,0,0-1,1.43l2,5.25a1.06,1.06,0,0,0,1,.7l11.23,0a1.07,1.07,0,0,0,1-1.45l-2.06-5.28A1.06,1.06,0,0,0,380.08,234.59Z" style="fill:#263238"></path><path d="M289.33,235.42l-1.15,5.12a1.06,1.06,0,0,0,1,1.29l7.17,0a1.07,1.07,0,0,0,1.05-.93l.67-5.13a1.05,1.05,0,0,0-1.05-1.2h-6.69A1.06,1.06,0,0,0,289.33,235.42Z" style="fill:#263238"></path><path d="M279.6,235.36l-1.51,5.29a.92.92,0,0,0,.88,1.17h7.32a.91.91,0,0,0,.89-.72l1.21-5.39a.91.91,0,0,0-.9-1.12l-7,.09A.92.92,0,0,0,279.6,235.36Z" style="fill:#263238"></path><path d="M348.27,235.87l1.13,5.23a1.05,1.05,0,0,0,1,.83l7.42,0a1.07,1.07,0,0,0,1-1.37l-1.56-5.23a1.05,1.05,0,0,0-1-.76h-7A1.05,1.05,0,0,0,348.27,235.87Z" style="fill:#263238"></path><path d="M308.8,235.6l-.25,5.15a1.06,1.06,0,0,0,1.06,1.12l37.78.06a1.07,1.07,0,0,0,1-1.29l-1.13-5.22a1.06,1.06,0,0,0-1-.83h-36.4A1.06,1.06,0,0,0,308.8,235.6Z" style="fill:#263238"></path><path d="M271.34,235.14l-2,5.53a.84.84,0,0,0,.79,1.13h6.14a.86.86,0,0,0,.81-.61l1.58-5.54a.84.84,0,0,0-.81-1.07h-5.69A.84.84,0,0,0,271.34,235.14Z" style="fill:#263238"></path><path d="M358.39,236l1.55,5.24a1.07,1.07,0,0,0,1,.76h6.77a1.06,1.06,0,0,0,1-1.43l-2-5.25a1.06,1.06,0,0,0-1-.69h-6.37A1.06,1.06,0,0,0,358.39,236Z" style="fill:#263238"></path><path d="M384.62,215.29c0,.14-25.58.26-57.13.26s-57.13-.12-57.13-.26,25.57-.26,57.13-.26S384.62,215.14,384.62,215.29Z" style="fill:#263238"></path><path d="M305.17,167.27a15,15,0,0,1,3.45-2.15l.21-3.77,6.15-1,1.43,3.49a15.69,15.69,0,0,1,4,.91l2.81-2.5,5.08,3.62-1.46,3.47a15.35,15.35,0,0,1,2.16,3.45l3.76.21,1,6.15-3.49,1.43a14.87,14.87,0,0,1-.91,4l2.51,2.81-3.62,5.08L324.76,191a15.47,15.47,0,0,1-3.44,2.15l-.22,3.76-6.15,1-1.43-3.49a14.87,14.87,0,0,1-4-.91L306.75,196l-5.08-3.62,1.46-3.47a15.81,15.81,0,0,1-2.16-3.45l-3.76-.22-1-6.15,3.49-1.43a15.69,15.69,0,0,1,.91-4l-2.51-2.81,3.62-5.08,3.48,1.46Zm4.51,7.72a6.69,6.69,0,1,0,9.34-1.56A6.69,6.69,0,0,0,309.68,175Z" style="fill:#f5f5f5"></path><path d="M339.06,182.93a10.3,10.3,0,0,1,2.33-1.45l.15-2.55,4.16-.7,1,2.36a10.43,10.43,0,0,1,2.68.62l1.9-1.7,3.44,2.45-1,2.35a10.36,10.36,0,0,1,1.45,2.34l2.55.14.7,4.17-2.36,1a10.63,10.63,0,0,1-.62,2.68l1.7,1.9L354.68,200l-2.36-1a10.12,10.12,0,0,1-2.33,1.46l-.14,2.55-4.17.7-1-2.37a10.51,10.51,0,0,1-2.68-.61l-1.9,1.69-3.44-2.45,1-2.35a10,10,0,0,1-1.46-2.33l-2.55-.15-.7-4.16,2.37-1a10,10,0,0,1,.61-2.68l-1.7-1.9,2.46-3.44,2.35,1Zm3.06,5.23a4.53,4.53,0,1,0,6.31-1.06A4.53,4.53,0,0,0,342.12,188.16Z" style="fill:#f5f5f5"></path><path d="M337.11,158.58a9.62,9.62,0,0,1,2.06-1.29l.13-2.25,3.69-.62.85,2.09a9.55,9.55,0,0,1,2.38.55l1.68-1.51,3,2.17-.87,2.09a8.89,8.89,0,0,1,1.29,2.06l2.26.13.61,3.69-2.09.85a9,9,0,0,1-.54,2.38l1.5,1.68-2.17,3.05-2.08-.88a9,9,0,0,1-2.07,1.29l-.13,2.26-3.68.62-.86-2.09a9.38,9.38,0,0,1-2.37-.55l-1.69,1.5-3-2.17.87-2.08a9.3,9.3,0,0,1-1.29-2.07l-2.25-.13-.62-3.68,2.09-.86a9,9,0,0,1,.55-2.37l-1.51-1.69,2.17-3,2.09.87Zm2.7,4.63a4,4,0,1,0,5.59-.93A4,4,0,0,0,339.81,163.21Z" style="fill:#f5f5f5"></path></g><g id="freepik--Character--inject-167"><path d="M111.59,164c-4.57-2.81-5.76-9.46-3.38-14.26s7.56-7.78,12.84-8.72a24.71,24.71,0,0,1,21.37,6.74c3,3,5.4,6.86,9.38,8.18,3.5,1.16,7.34,0,11,.43,4.92.57,9.17,4,11.75,8.21s3.68,9.17,4.33,14.07c.6,4.5,1,9.44,4.2,12.69s7.92,3.77,11.75,6c7.2,4.19,9.66,14.79,5.06,21.73-1.47,2.21-3.6,4.25-3.73,6.9-.13,2.42,1.47,4.55,2.23,6.85,2,5.92-2.79,13.06-9,13.51-3.15.23-6.53-.95-9.33.5s-3.77,4.83-5.53,7.42a13.47,13.47,0,0,1-16.36,4.48c-2.33-1.1-4.54-2.94-7.11-2.73s-4.55,2.43-7.06,3c-3.3.69-6.47-1.7-8.48-4.4s-3.42-5.9-6-8.1c-3.34-2.89-8-3.54-12.17-4.92A34.09,34.09,0,0,1,97.43,194" style="fill:#263238"></path><path d="M160.38,222.49A9.28,9.28,0,0,1,164,220h-.28a5.36,5.36,0,0,1,.78-.15,3.68,3.68,0,0,1,2.88.32h0a6.82,6.82,0,0,1,3.77,3.19,8,8,0,0,1-.83,8.3A6.15,6.15,0,0,1,159,229.72,7.61,7.61,0,0,1,160.38,222.49Z" style="fill:#455a64"></path><path d="M101.44,273l-6.1-88.28a7.5,7.5,0,0,1,6.38-7.89l39.33-11.76c12.68-1.9,21.82,13.42,23.18,26.17,1.5,14.16,2.78,31.51,1.56,42.17-2.47,21.45-20,24.95-20,24.95s.19,21.81.43,29.55l5.22,23.95Z" style="fill:#ffbf9d"></path><path d="M156.5,209.56a2.75,2.75,0,0,1-2.52,2.87,2.61,2.61,0,0,1-2.92-2.34,2.74,2.74,0,0,1,2.51-2.88A2.64,2.64,0,0,1,156.5,209.56Z" style="fill:#263238"></path><path d="M160.72,199c-.32.37-2.45-1.07-5.39-.93s-5,1.69-5.37,1.35c-.16-.16.15-.81,1.06-1.54a7.53,7.53,0,0,1,4.28-1.52,7.24,7.24,0,0,1,4.32,1.19C160.55,198.18,160.88,198.81,160.72,199Z" style="fill:#263238"></path><path d="M130,210.46a2.73,2.73,0,0,1-2.51,2.87,2.63,2.63,0,0,1-2.93-2.34,2.75,2.75,0,0,1,2.52-2.88A2.62,2.62,0,0,1,130,210.46Z" style="fill:#263238"></path><path d="M131.85,200.77c-.33.37-2.47-1.07-5.4-.94s-5,1.7-5.37,1.35c-.16-.15.15-.81,1.07-1.53a7.4,7.4,0,0,1,4.27-1.53,7.24,7.24,0,0,1,4.32,1.19C131.67,200,132,200.6,131.85,200.77Z" style="fill:#263238"></path><path d="M143.46,222.11c0-.16,1.79-.56,4.73-1.07.75-.11,1.46-.29,1.56-.8a3.82,3.82,0,0,0-.6-2.21l-2.46-5.62c-3.44-8-6-14.6-5.63-14.74s3.37,6.25,6.8,14.25l2.38,5.66a4.33,4.33,0,0,1,.51,2.93,1.88,1.88,0,0,1-1.19,1.15,5,5,0,0,1-1.26.24C145.32,222.19,143.47,222.28,143.46,222.11Z" style="fill:#263238"></path><path d="M145.7,256.9s-13,1.46-27.57-6.47c0,0,6.4,15.77,27.63,12.86Z" style="fill:#ff9a6c"></path><path d="M143.32,229.12a7.23,7.23,0,0,0-6.09-2.9,4.72,4.72,0,0,0-3.78,2.27,4.32,4.32,0,0,0,5.12,6.26,10.71,10.71,0,0,0,4.22-2.86,3.46,3.46,0,0,0,.88-1.15,1.51,1.51,0,0,0-.18-1.48" style="fill:#ff9a6c"></path><path d="M134.89,224.52c.48-.05.62,3.14,3.45,5.29s6.21,1.65,6.26,2.09c.05.2-.73.66-2.17.76a8,8,0,0,1-5.21-1.57,6.9,6.9,0,0,1-2.69-4.45C134.35,225.32,134.67,224.51,134.89,224.52Z" style="fill:#263238"></path><path d="M132.63,188.61c-.26.81-3.21.56-6.64,1.12s-6.18,1.62-6.67.93c-.22-.34.23-1.11,1.32-1.93a11.75,11.75,0,0,1,10.14-1.57C132.07,187.62,132.73,188.22,132.63,188.61Z" style="fill:#263238"></path><path d="M159.25,188.9c-.48.69-2.54.08-5,.16s-4.48.64-5,0c-.22-.33.07-1,1-1.68a7.2,7.2,0,0,1,8-.1C159.16,187.89,159.47,188.56,159.25,188.9Z" style="fill:#263238"></path><path d="M178.41,185.09a14.67,14.67,0,0,0-5.74-8c-1.55-1-3.35-1.56-4.79-2.69-3.11-2.44-3.89-6.76-5.84-10.2a16.12,16.12,0,0,0-12.39-8c-4.23-.37-8.56,1-12.69,0-3.06-.73-5.74-2.66-8.83-3.2-6-1.06-11.54,3.33-15.83,7.69,0,4.29,3.51,7.12,6.84,9.83a14.94,14.94,0,0,0,12.12,3c3.27-.65,6.84-2.36,9.71-.66s3.2,6.3,5.88,8.56c3.83,3.23,9.81.06,14.63,1.41,3.73,1.05,6.1,4.56,8.61,7.51s6.24,5.73,9.93,4.57A43.11,43.11,0,0,0,178.41,185.09Z" style="fill:#263238"></path><path d="M133.06,167.58c-2.7-.73-8.24-2.39-9.71-4.71-3.21-5-8.79-8.4-14.44-8a13.56,13.56,0,0,0-12.06,10.91,19.53,19.53,0,0,0-16.63,11,20.48,20.48,0,0,0-1,2.52,14.87,14.87,0,0,0-.81,12.48c1,2.42,2.6,5.1,1.38,7.4s-4.46,2.47-7,3.37a9.86,9.86,0,0,0-6,11.1c.37,1.62,1.17,3.22.85,4.84s-1.75,2.91-2.84,4.24a12.29,12.29,0,0,0,7.49,19.88c1.92.32,4,.21,5.67,1.2,1.92,1.14,2.78,3.42,4.15,5.18a10.6,10.6,0,0,0,11.53,3.43,10,10,0,0,0,2.29-1.2c1.31,1.76,3.34,2.94,6.78,2.89l-1.45-44.93a3.72,3.72,0,0,0,2.75,2.09c7.24,1.53,8.08-13.35,6.41-17.36a41.77,41.77,0,0,0,7.13-7.71c1.94-3,3.58-11,3.1-14.63C123.23,171.72,134.25,167.9,133.06,167.58Z" style="fill:#263238"></path><path d="M103.27,212.84c-.3-4.56-5.9-5.46-9.83-3.11-2.15,1.29-3.78,3.84-3.51,8.69.73,12.92,13.55,9.53,13.55,9.16S103.61,218.19,103.27,212.84Z" style="fill:#ffbf9d"></path><path d="M99.26,222.9c-.06,0-.21.17-.58.37a2.31,2.31,0,0,1-1.69.13c-1.39-.43-2.66-2.53-2.85-4.86a7.37,7.37,0,0,1,.45-3.26,2.6,2.6,0,0,1,1.59-1.82,1.16,1.16,0,0,1,1.37.54c.19.36.12.62.19.64s.27-.24.13-.76a1.4,1.4,0,0,0-.55-.79,1.71,1.71,0,0,0-1.26-.25A3.16,3.16,0,0,0,93.82,215a7.63,7.63,0,0,0-.58,3.65c.23,2.6,1.7,5,3.59,5.39a2.42,2.42,0,0,0,2-.45C99.26,223.22,99.31,222.92,99.26,222.9Z" style="fill:#ff9a6c"></path><path d="M115.2,164.35a7.65,7.65,0,0,0-2.55,2.2c-1.25,1.78-1.68,5.16-.82,8.95l.08.33-.32.08a12.5,12.5,0,0,0-8.22,7.47,9.66,9.66,0,0,0-.63,3.16,18.94,18.94,0,0,0,.46,3.41,26.34,26.34,0,0,1,.54,3.67,6.07,6.07,0,0,1-1,3.84c-1.57,2.47-4.14,3.71-6.34,4.91a21.82,21.82,0,0,0-6,4,16.12,16.12,0,0,0-4.67,10.91,16.91,16.91,0,0,0,1.82,8c.89,1.76,1.62,2.59,1.55,2.64s-.22-.17-.56-.57a13,13,0,0,1-1.3-1.9,16.3,16.3,0,0,1-2.15-8.14,16.65,16.65,0,0,1,4.71-11.49A22.43,22.43,0,0,1,96,201.58c2.2-1.2,4.62-2.43,6-4.61,1.4-2,.73-4.54.32-6.85a18.65,18.65,0,0,1-.45-3.58,10.35,10.35,0,0,1,.7-3.46,13.12,13.12,0,0,1,8.85-7.82l-.24.41c-.83-4-.27-7.48,1.17-9.34a5.41,5.41,0,0,1,2-1.68A3.14,3.14,0,0,1,115.2,164.35Z" style="fill:#455a64"></path><path d="M94.5,227.81a9.42,9.42,0,0,1,3.64-2.47h-.28a5.24,5.24,0,0,1,.79-.15,3.69,3.69,0,0,1,2.88.32h0a6.74,6.74,0,0,1,3.76,3.18,8,8,0,0,1-.82,8.3A6.15,6.15,0,0,1,93.12,235,7.67,7.67,0,0,1,94.5,227.81Z" style="fill:#455a64"></path><path d="M281.93,325.32l8.81-3.38s2.41-7.69,4-9.94,10.1-9.17,10.6-9.35,6.09-12.72,8.64-12.32,4.3,2.2,3.59,5.6-6.36,10.19-4.8,11.31a11.49,11.49,0,0,0,4.11,1.54s.7-3.91,2.84-5.17,4.59.83,4.59.83l.06,1.69,2.12-1.94s2.23-7.85,5.6-7.81a13.73,13.73,0,0,1,3.33-4.48,2.91,2.91,0,0,1,4.48,1.31h0L333.85,311l-16.67,18.36s-7.81,3-9.8,3.92-11,7.18-15,8.52-8.65,3.37-8.65,3.37Z" style="fill:#ffbf9d"></path><path d="M305.31,319.84a10.8,10.8,0,0,0-3.16-.32,14.7,14.7,0,0,0-7.55,1.66,9.15,9.15,0,0,0-3.13,3,15,15,0,0,0-1.49,3.16,9.46,9.46,0,0,0-.72,3.1,15.6,15.6,0,0,0,1.29-2.88c.76-1.73,2-4.23,4.48-5.65a16.23,16.23,0,0,1,7.13-1.8A13.22,13.22,0,0,0,305.31,319.84Z" style="fill:#ff9a6c"></path><path d="M313,307.69c.13-.18-.78-1-2.2-1.43s-2.63-.24-2.62,0,1.09.44,2.38.83S312.88,307.9,313,307.69Z" style="fill:#ff9a6c"></path><path d="M331.89,311a18,18,0,0,1,.39-3.86c.35-2.4.89-5.75,1.56-9.6l.25.5c-.59-.27-1.3-.69-1.83-.86a2.28,2.28,0,0,0-1.77.23,5.14,5.14,0,0,0-2.06,2.49,18,18,0,0,0-1.1,3.07c-.48,2.06-.8,4-1.09,5.56a33.73,33.73,0,0,1-1.08,5.14c-.13,0,0-2,.4-5.25.21-1.61.46-3.52.91-5.65a18,18,0,0,1,1.1-3.27,6,6,0,0,1,2.47-2.95,3.28,3.28,0,0,1,2.49-.29,17.65,17.65,0,0,1,2,.94l.32.15-.07.35c-.72,3.85-1.38,7.18-1.89,9.55A18.08,18.08,0,0,1,331.89,311Z" style="fill:#ff9a6c"></path><path d="M310,326.19s0-.27.08-.76a10.43,10.43,0,0,1,.71-2,26.31,26.31,0,0,1,4.38-6.38l-.1.16c1.16-3.41.11-8.35,3.2-12.76a4,4,0,0,1,3.21-1.43,5.83,5.83,0,0,1,3.11,1.09l.22.15,0,.27c-.62,5-1.19,9.31-1.64,12.37a8,8,0,0,1-1.12,3.49c-.43.74-.74,1.08-.79,1a6.3,6.3,0,0,1,.51-1.2,8.63,8.63,0,0,0,.82-3.44c.28-3.07.73-7.39,1.29-12.37l.19.43a5.08,5.08,0,0,0-2.59-.88,3.06,3.06,0,0,0-2.46,1.11,7.31,7.31,0,0,0-1.44,3,30.17,30.17,0,0,0-.7,3.26c-.18,1.09-.23,2.09-.36,3.17a17.78,17.78,0,0,1-.65,2.94l0,.09-.06.07a29.77,29.77,0,0,0-4.54,6C310.31,325.18,310.11,326.22,310,326.19Z" style="fill:#ff9a6c"></path><path d="M95.76,270.81c.54-.76,4.07-7.59,4.07-7.59l20.06,17.29s19.66,16.46,19.66,15.4l3.14-15.84,3.86-14.41,7.21,10.9s22.67,44.43,22.67,45,14,46.52,14,46.52l-3,18.65-.36,66.05L144.82,451l-8.34-13.31L122.1,353Z" style="fill:#fff"></path><polygon points="148.48 439.67 193.5 439.67 200.63 469.93 131.4 469.93 148.48 439.67" style="fill:#263238"></polygon><path d="M147.06,426.9c-1.41-21.69-.82-62.62-9.12-84S96.3,269.12,96.3,269.12l-8.19,12.72-21.45,8.05,29.1,118s-11.2,26.4-16.54,41.82c-1.6,4.61-3.75,12.43-6.11,20.24h73.66C147.42,452.77,147.73,437.15,147.06,426.9Z" style="fill:#5E7AFF"></path><path d="M288.1,318.83l-56.78,31.56L192,294.24l-.34-.45c-4.48-5.93-8.88-12.45-16.12-14.08l-1.1-.25,2.1,67.21s28,30.84,43.67,43.59c4.67,3.8,16.51,1.43,22.15-1.69,22.59-12.47,61.19-44.44,61.19-44.44Z" style="fill:#5E7AFF"></path><path d="M193.1,408.38s4.14-32.08,5.5-40.14c7.1-42.16-24.18-88.78-24.18-88.78l-14.3-2.37-12.34-10.18,5.45,15.22s17.92,50.12,21.48,66.14,5.34,65.24,5.89,64.05c.33-.69,2.48,29.73,5.19,57.61h30.35Z" style="fill:#5E7AFF"></path><path d="M190.46,372.66a5.22,5.22,0,0,1,0-1.05c0-.74.09-1.73.16-3,0-.66.08-1.37.13-2.15s0-1.65,0-2.56c0-1.84,0-3.93-.14-6.24a130,130,0,0,0-7-35.31,123.14,123.14,0,0,0-5.7-14v0h0a118.72,118.72,0,0,0-6.58-12.81c-2.17-3.78-4.17-7.06-5.85-9.78l-4-6.34c-.43-.7-.78-1.26-1.06-1.7a2.83,2.83,0,0,1-.33-.61,3.35,3.35,0,0,1,.43.55c.29.42.67,1,1.15,1.63,1,1.44,2.39,3.56,4.12,6.25s3.78,6,6,9.71a116.32,116.32,0,0,1,6.7,12.85v0a117.91,117.91,0,0,1,5.76,14.1,124.93,124.93,0,0,1,6.86,35.52c.15,2.32.07,4.42,0,6.26,0,.92,0,1.78-.06,2.57s-.13,1.5-.19,2.16c-.13,1.23-.22,2.22-.3,3A6.51,6.51,0,0,1,190.46,372.66Z" style="fill:#263238"></path><path d="M139.18,296.15a3.46,3.46,0,0,1-.8-.35l-2.16-1.14-7.64-4.23.45-.22c-.37,3.43-1,7.44-1.63,11.71-.26,1.74-.5,3.43-.7,5.06l-.07.62-.48-.4c-4.08-3.48-7.64-6.54-10.15-8.74l-2.94-2.62a7.08,7.08,0,0,1-1-1,5.67,5.67,0,0,1,1.16.82l3.07,2.46c2.59,2.12,6.2,5.11,10.31,8.56l-.56.22c.19-1.64.42-3.34.68-5.08.63-4.28,1.3-8.28,1.72-11.68l.06-.46.39.23,7.51,4.44,2.09,1.29C139,295.94,139.2,296.12,139.18,296.15Z" style="fill:#263238"></path><path d="M150.85,276.56a8.45,8.45,0,0,1,.06,1.8c0,1.3,0,2.95-.09,4.92-.1,4.16-.3,9.89-.55,16.23,0,.15,0,.31,0,.46l-.05,1.11-.59-.94c-2.87-4.53-5.5-8.68-7.59-12l.48-.06-2.08,5.71a12.55,12.55,0,0,1-.87,2.08,12.23,12.23,0,0,1,.59-2.17c.48-1.51,1.1-3.46,1.85-5.79l.17-.53.31.47,7.72,11.88-.63.17c0-.15,0-.31,0-.46.25-6.33.52-12.07.75-16.22.13-2,.23-3.61.31-4.91A8.6,8.6,0,0,1,150.85,276.56Z" style="fill:#263238"></path><path d="M66.66,289.89a32.72,32.72,0,0,0-5,3.83A34,34,0,0,0,53,307.39c-2,5.79-4,12.91-5.2,17.39l-5.42,82.35a48.34,48.34,0,0,0,3.46,21.43l16.81,41.37H98.91L79.34,414.58,86,353.52Z" style="fill:#5E7AFF"></path><polyline points="89 280.47 96.97 304.39 105.47 304.39 99.95 307.9 143.56 391.23" style="fill:#5E7AFF"></polyline><path d="M143.56,391.23s-.08-.09-.2-.29l-.5-.88c-.45-.84-1.08-2-1.87-3.44l-6.77-12.7-22.1-42L99.67,308.05l-.14-.26.25-.16,5.52-3.5.17.56-8.5,0h-.2l-.06-.19c-2.38-7.3-4.33-13.28-5.71-17.49-.64-2-1.15-3.65-1.52-4.81-.16-.52-.28-.93-.38-1.26a1.53,1.53,0,0,1-.1-.44,3,3,0,0,1,.18.41c.11.32.26.73.45,1.24l1.67,4.76c1.42,4.2,3.45,10.15,5.93,17.42l-.26-.18,8.5,0h1l-.88.56-5.51,3.53.12-.42c3.8,7.26,8,15.33,12.5,23.83,8.54,16.42,16.28,31.29,21.92,42.11,2.75,5.37,5,9.73,6.57,12.8L143,390l.44.92A2.18,2.18,0,0,1,143.56,391.23Z" style="fill:#263238"></path><path d="M72.91,301.55a53.17,53.17,0,0,1,11.77,45.26" style="fill:#5E7AFF"></path><path d="M84.68,346.81c-.14,0,.45-2.69.7-7a55.55,55.55,0,0,0-.11-7.65,60.54,60.54,0,0,0-1.57-9.22,61.71,61.71,0,0,0-3.12-8.82A55.13,55.13,0,0,0,77,307.35c-2.34-3.68-4.16-5.71-4-5.8a9.55,9.55,0,0,1,1.31,1.39,20.4,20.4,0,0,1,1.42,1.73c.52.7,1.15,1.48,1.73,2.41a51.61,51.61,0,0,1,3.8,6.74,56.8,56.8,0,0,1,3.2,8.91,56,56,0,0,1,1.54,9.34,49.17,49.17,0,0,1,0,7.73c-.05,1.1-.22,2.08-.33,2.95a21.8,21.8,0,0,1-.39,2.21A11,11,0,0,1,84.68,346.81Z" style="fill:#263238"></path><path d="M98.91,469.93a1.47,1.47,0,0,1-.13-.28c-.08-.21-.18-.48-.32-.82-.28-.77-.67-1.84-1.18-3.2-1-2.82-2.47-6.84-4.26-11.8-3.56-10-8.48-23.84-13.93-39.16l0-.06v-.06c0-.42.1-.88.15-1.35,1.84-16.47,3.5-31.38,4.71-42.21.62-5.37,1.13-9.73,1.49-12.79.18-1.48.32-2.64.43-3.47l.12-.9a1.41,1.41,0,0,1,.06-.31,1,1,0,0,1,0,.31c0,.24,0,.54-.07.91-.08.83-.19,2-.33,3.49-.32,3.06-.77,7.42-1.33,12.8-1.17,10.84-2.78,25.75-4.55,42.23,0,.46-.11.92-.15,1.35l0-.12,13.79,39.22,4.1,11.85c.47,1.38.83,2.46,1.09,3.23l.27.85A1.33,1.33,0,0,1,98.91,469.93Z" style="fill:#263238"></path><path d="M184,300.84a81.06,81.06,0,0,1,5.89,11.2c.84,1.77,1.54,3.8,2.4,5.93s1.58,4.49,2.24,7,1.32,5.13,2,7.88c.25,1.39.51,2.8.77,4.23s.42,2.9.64,4.37a141,141,0,0,1,.4,30.52c-.22,1.93-.41,3.69-.59,5.24s-.41,2.86-.56,3.94l-.4,2.49a8.72,8.72,0,0,1-.17.86,4.45,4.45,0,0,1,.07-.88c.07-.61.17-1.45.3-2.49s.34-2.41.47-3.95.33-3.31.51-5.24a148.91,148.91,0,0,0-.55-30.42c-.22-1.47-.37-2.94-.63-4.36s-.51-2.83-.76-4.21c-.62-2.73-1.18-5.38-1.92-7.85s-1.48-4.8-2.18-7-1.51-4.16-2.33-5.93l-1.11-2.56c-.35-.8-.74-1.53-1.07-2.23-.68-1.4-1.25-2.6-1.8-3.55s-.89-1.67-1.19-2.21A6.86,6.86,0,0,1,184,300.84Z" style="fill:#263238"></path><path d="M231.88,367.91a9.19,9.19,0,0,1-1-2.46,24.58,24.58,0,0,1-.56-12.81,9.13,9.13,0,0,1,.82-2.54c.08,0-.19,1-.46,2.61a29.32,29.32,0,0,0,.56,12.64C231.6,366.93,232,367.88,231.88,367.91Z" style="fill:#263238"></path></g></svg>
